<svg xmlns="http://www.w3.org/2000/svg" xmlns:xlink="http://www.w3.org/1999/xlink" width="500" zoomAndPan="magnify" viewBox="0 0 375 149.999998" height="200" preserveAspectRatio="xMidYMid meet" version="1.0"><defs><g/><clipPath id="5b98605b96"><path d="M 131 1.414062 L 193.945312 1.414062 L 193.945312 121.414062 L 131 121.414062 Z M 131 1.414062 " clip-rule="nonzero"/></clipPath><clipPath id="d8e60478d7"><path d="M 68.695312 1.414062 L 132 1.414062 L 132 121.414062 L 68.695312 121.414062 Z M 68.695312 1.414062 " clip-rule="nonzero"/></clipPath></defs><g clip-path="url(#5b98605b96)"><path fill="#3871c1" d="M 131.292969 1.417969 L 131.292969 9.632812 C 134.074219 10.128906 141.324219 11.527344 150.433594 14.171875 C 159.816406 16.898438 172.941406 21.46875 184.90625 28.339844 C 183.546875 34.898438 180.535156 47.019531 174.753906 60.433594 C 169.785156 71.976562 163.757812 82.210938 156.84375 90.855469 C 153.050781 95.601562 148.980469 99.875 144.65625 103.652344 C 141.121094 106.742188 135.59375 104.160156 135.660156 99.464844 C 135.90625 82.382812 136.65625 62.304688 138.828125 59.875 C 140.347656 58.167969 142.757812 58.363281 145.117188 59.222656 C 147.378906 60.046875 148.066406 62.90625 146.414062 64.65625 C 146.398438 64.671875 146.382812 64.6875 146.367188 64.703125 C 140.152344 71.308594 144.777344 79.324219 152.4375 78.398438 C 161.425781 77.316406 168.828125 68.046875 168.828125 55.273438 C 168.828125 42.5 161.492188 32.148438 152.4375 32.148438 C 145.90625 32.148438 139.328125 36.667969 141.695312 45.511719 C 142.917969 50.085938 146.929688 52.195312 149.3125 54.410156 C 145.671875 53.925781 141.175781 53.726562 138.625 55.085938 C 133.296875 57.921875 132.96875 93.113281 133.1875 112.144531 C 133.234375 116.0625 133.304688 119.296875 133.355469 121.421875 C 134.101562 121.015625 134.835938 120.597656 135.5625 120.171875 C 184.597656 91.480469 193.875 24.316406 193.875 24.316406 C 166.8125 6.851562 131.292969 1.417969 131.292969 1.417969 " fill-opacity="1" fill-rule="nonzero"/></g><g clip-path="url(#d8e60478d7)"><path fill="#80cc28" d="M 97.050781 56.921875 C 96.851562 59.011719 96.867188 61.023438 97.074219 62.933594 C 96.445312 60.695312 96.101562 58.246094 96.101562 55.632812 C 96.101562 44.132812 102.707031 34.804688 110.859375 34.804688 C 113.25 34.804688 115.644531 35.476562 117.507812 36.808594 C 116.652344 36.546875 115.765625 36.371094 114.875 36.285156 C 106.207031 35.453125 98.226562 44.695312 97.050781 56.921875 Z M 68.71875 24.316406 C 68.71875 24.316406 77.992188 91.480469 127.027344 120.171875 C 127.296875 120.328125 127.570312 120.484375 127.84375 120.640625 C 128.304688 120.902344 128.765625 121.164062 129.234375 121.421875 C 129.285156 119.296875 129.355469 116.0625 129.402344 112.144531 C 129.621094 93.113281 129.292969 57.921875 123.964844 55.085938 C 121.414062 53.726562 116.914062 53.925781 113.277344 54.410156 C 115.660156 52.195312 119.671875 50.085938 120.894531 45.511719 C 123.261719 36.667969 116.683594 32.148438 110.152344 32.148438 C 101.097656 32.148438 93.761719 42.5 93.761719 55.273438 C 93.761719 68.046875 101.164062 77.316406 110.152344 78.398438 C 117.8125 79.324219 122.4375 71.308594 116.222656 64.703125 C 116.207031 64.6875 116.191406 64.671875 116.175781 64.65625 C 114.523438 62.90625 115.210938 60.046875 117.472656 59.222656 C 119.832031 58.363281 122.242188 58.167969 123.761719 59.875 C 125.933594 62.304688 126.683594 82.382812 126.929688 99.460938 C 126.996094 104.160156 121.46875 106.738281 117.929688 103.648438 C 113.550781 99.820312 109.433594 95.488281 105.59375 90.667969 C 98.667969 81.960938 92.632812 71.65625 87.664062 60.042969 C 81.96875 46.71875 79.015625 34.816406 77.679688 28.34375 C 89.640625 21.472656 102.773438 16.898438 112.15625 14.171875 C 121.261719 11.53125 128.511719 10.128906 131.292969 9.632812 L 131.292969 1.417969 C 131.292969 1.417969 95.777344 6.851562 68.71875 24.316406 " fill-opacity="1" fill-rule="nonzero"/></g><g fill="#044274" fill-opacity="1"><g transform="translate(168.71763, 115.098219)"><g><path d="M 5.640625 -23.84375 L 5.640625 0 L 2.625 0 L 2.625 -23.84375 Z M 5.640625 -23.84375 "/></g></g></g><g fill="#044274" fill-opacity="1"><g transform="translate(176.981571, 115.098219)"><g><path d="M 5.5 -19.53125 L 5.5 0 L 2.625 0 L 2.625 -23.84375 L 6.359375 -23.84375 L 15.34375 -4.171875 L 15.40625 -4.171875 L 15.40625 -23.84375 L 18.28125 -23.84375 L 18.28125 0 L 14.546875 0 L 5.5625 -19.53125 Z M 5.5 -19.53125 "/></g></g></g><g fill="#044274" fill-opacity="1"><g transform="translate(197.88045, 115.098219)"><g><path d="M 6.28125 -2.359375 C 7.507812 -2.359375 8.515625 -2.71875 9.296875 -3.4375 C 10.085938 -4.15625 10.484375 -5.054688 10.484375 -6.140625 C 10.484375 -6.804688 10.394531 -7.363281 10.21875 -7.8125 C 10.050781 -8.269531 9.703125 -8.75 9.171875 -9.25 C 8.640625 -9.75 7.800781 -10.34375 6.65625 -11.03125 C 5.363281 -11.832031 4.367188 -12.523438 3.671875 -13.109375 C 2.972656 -13.703125 2.441406 -14.382812 2.078125 -15.15625 C 1.710938 -15.9375 1.53125 -16.90625 1.53125 -18.0625 C 1.53125 -19.9375 2.144531 -21.40625 3.375 -22.46875 C 4.601562 -23.539062 6.195312 -24.078125 8.15625 -24.078125 C 8.882812 -24.078125 9.640625 -24.003906 10.421875 -23.859375 C 11.210938 -23.710938 11.894531 -23.523438 12.46875 -23.296875 L 12.46875 -20.390625 C 11.894531 -20.734375 11.253906 -21 10.546875 -21.1875 C 9.847656 -21.382812 9.144531 -21.484375 8.4375 -21.484375 C 7.320312 -21.484375 6.414062 -21.144531 5.71875 -20.46875 C 5.019531 -19.800781 4.671875 -18.957031 4.671875 -17.9375 C 4.671875 -17.019531 4.960938 -16.257812 5.546875 -15.65625 C 6.128906 -15.050781 7.21875 -14.296875 8.8125 -13.390625 C 10.632812 -12.316406 11.890625 -11.234375 12.578125 -10.140625 C 13.273438 -9.046875 13.625 -7.84375 13.625 -6.53125 C 13.625 -4.5 13.007812 -2.863281 11.78125 -1.625 C 10.550781 -0.382812 8.84375 0.234375 6.65625 0.234375 C 5.75 0.234375 4.859375 0.144531 3.984375 -0.03125 C 3.109375 -0.21875 2.347656 -0.46875 1.703125 -0.78125 L 1.703125 -3.890625 C 3.484375 -2.867188 5.007812 -2.359375 6.28125 -2.359375 Z M 6.28125 -2.359375 "/></g></g></g><g fill="#044274" fill-opacity="1"><g transform="translate(213.042386, 115.098219)"><g><path d="M 8.5 -23.84375 C 10.59375 -23.84375 12.265625 -23.226562 13.515625 -22 C 14.773438 -20.769531 15.40625 -19.128906 15.40625 -17.078125 C 15.40625 -14.734375 14.738281 -12.960938 13.40625 -11.765625 C 12.070312 -10.566406 10.1875 -9.96875 7.75 -9.96875 L 5.640625 -9.96875 L 5.640625 0 L 2.625 0 L 2.625 -23.84375 Z M 12.265625 -16.8125 C 12.265625 -18.257812 11.878906 -19.378906 11.109375 -20.171875 C 10.347656 -20.972656 9.054688 -21.375 7.234375 -21.375 L 5.640625 -21.375 L 5.640625 -12.4375 L 7.109375 -12.4375 C 8.992188 -12.4375 10.320312 -12.8125 11.09375 -13.5625 C 11.875 -14.3125 12.265625 -15.394531 12.265625 -16.8125 Z M 12.265625 -16.8125 "/></g></g></g><g fill="#044274" fill-opacity="1"><g transform="translate(229.467816, 115.098219)"><g><path d="M 5.640625 -23.84375 L 5.640625 0 L 2.625 0 L 2.625 -23.84375 Z M 5.640625 -23.84375 "/></g></g></g><g fill="#044274" fill-opacity="1"><g transform="translate(237.731757, 115.098219)"><g><path d="M 6.65625 -10.796875 L 5.640625 -10.796875 L 5.640625 0 L 2.625 0 L 2.625 -23.84375 L 8.875 -23.84375 C 11.113281 -23.84375 12.785156 -23.253906 13.890625 -22.078125 C 14.992188 -20.910156 15.546875 -19.4375 15.546875 -17.65625 C 15.546875 -16.15625 15.144531 -14.910156 14.34375 -13.921875 C 13.550781 -12.929688 12.378906 -12.273438 10.828125 -11.953125 L 10.828125 -11.890625 C 11.554688 -11.753906 12.113281 -11.503906 12.5 -11.140625 C 12.882812 -10.773438 13.191406 -10.25 13.421875 -9.5625 L 16.765625 0 L 13.53125 0 L 10.765625 -8.15625 C 10.484375 -8.9375 10.160156 -9.515625 9.796875 -9.890625 C 9.429688 -10.265625 9.007812 -10.507812 8.53125 -10.625 C 8.0625 -10.738281 7.4375 -10.796875 6.65625 -10.796875 Z M 12.40625 -17.453125 C 12.40625 -18.722656 12.015625 -19.691406 11.234375 -20.359375 C 10.460938 -21.035156 9.414062 -21.375 8.09375 -21.375 L 5.640625 -21.375 L 5.640625 -13.25 L 8.0625 -13.25 C 9.382812 -13.25 10.4375 -13.628906 11.21875 -14.390625 C 12.007812 -15.160156 12.40625 -16.179688 12.40625 -17.453125 Z M 12.40625 -17.453125 "/></g></g></g><g fill="#044274" fill-opacity="1"><g transform="translate(255.454831, 115.098219)"><g><path d="M 13.734375 -23.84375 L 13.734375 -21.25 L 5.640625 -21.25 L 5.640625 -13.65625 L 13.359375 -13.65625 L 13.359375 -11.0625 L 5.640625 -11.0625 L 5.640625 -2.59375 L 14.171875 -2.59375 L 14.171875 0 L 2.625 0 L 2.625 -23.84375 Z M 13.734375 -23.84375 "/></g></g></g><g fill="#737373" fill-opacity="1"><g transform="translate(53.039488, 133.176997)"><g><path d="M 7.1875 0 L 6.609375 0 C 6.472656 0 6.363281 -0.0234375 6.28125 -0.078125 C 6.207031 -0.128906 6.132812 -0.210938 6.0625 -0.328125 L 2.96875 -5.1875 L 2.421875 -6.09375 L 2.40625 -6.09375 L 2.40625 -0.8125 L 3.234375 -0.8125 C 3.328125 -0.8125 3.375 -0.765625 3.375 -0.671875 L 3.375 -0.125 C 3.375 -0.0390625 3.328125 0 3.234375 0 L 0.65625 0 C 0.5625 0 0.515625 -0.0390625 0.515625 -0.125 L 0.515625 -0.671875 C 0.515625 -0.765625 0.5625 -0.8125 0.65625 -0.8125 L 1.46875 -0.8125 L 1.46875 -6.90625 L 0.65625 -6.90625 C 0.5625 -6.90625 0.515625 -6.945312 0.515625 -7.03125 L 0.515625 -7.578125 C 0.515625 -7.660156 0.5625 -7.703125 0.65625 -7.703125 L 2.15625 -7.703125 C 2.363281 -7.703125 2.546875 -7.582031 2.703125 -7.34375 L 5.765625 -2.5625 L 6.375 -1.515625 L 6.390625 -1.515625 L 6.390625 -6.90625 L 5.578125 -6.90625 C 5.484375 -6.90625 5.4375 -6.945312 5.4375 -7.03125 L 5.4375 -7.578125 C 5.4375 -7.660156 5.484375 -7.703125 5.578125 -7.703125 L 8.15625 -7.703125 C 8.238281 -7.703125 8.28125 -7.660156 8.28125 -7.578125 L 8.28125 -7.03125 C 8.28125 -6.945312 8.238281 -6.90625 8.15625 -6.90625 L 7.328125 -6.90625 L 7.328125 -0.125 C 7.328125 -0.0390625 7.28125 0 7.1875 0 Z M 7.1875 0 "/></g></g></g><g fill="#737373" fill-opacity="1"><g transform="translate(63.772528, 133.176997)"><g><path d="M 8.25 0 L 5.8125 0 C 5.726562 0 5.6875 -0.0390625 5.6875 -0.125 L 5.6875 -0.671875 C 5.6875 -0.765625 5.726562 -0.8125 5.8125 -0.8125 L 6.5625 -0.8125 L 5.875 -2.65625 L 2.875 -2.65625 L 2.171875 -0.8125 L 2.9375 -0.8125 C 3.019531 -0.8125 3.0625 -0.765625 3.0625 -0.671875 L 3.0625 -0.125 C 3.0625 -0.0390625 3.019531 0 2.9375 0 L 0.515625 0 C 0.429688 0 0.390625 -0.0390625 0.390625 -0.125 L 0.390625 -0.671875 C 0.390625 -0.765625 0.429688 -0.8125 0.515625 -0.8125 L 1.234375 -0.8125 L 3.546875 -6.90625 L 2.96875 -6.90625 C 2.875 -6.90625 2.828125 -6.945312 2.828125 -7.03125 L 2.828125 -7.578125 C 2.828125 -7.660156 2.875 -7.703125 2.96875 -7.703125 L 4.421875 -7.703125 C 4.597656 -7.703125 4.726562 -7.664062 4.8125 -7.59375 C 4.90625 -7.53125 4.984375 -7.414062 5.046875 -7.25 L 7.515625 -0.8125 L 8.25 -0.8125 C 8.332031 -0.8125 8.375 -0.765625 8.375 -0.671875 L 8.375 -0.125 C 8.375 -0.0390625 8.332031 0 8.25 0 Z M 5.578125 -3.40625 L 4.390625 -6.59375 L 4.359375 -6.59375 L 3.15625 -3.40625 Z M 5.578125 -3.40625 "/></g></g></g><g fill="#737373" fill-opacity="1"><g transform="translate(74.730918, 133.176997)"><g><path d="M 4.765625 0 L 4.34375 0 C 4.207031 0 4.101562 -0.03125 4.03125 -0.09375 C 3.957031 -0.15625 3.894531 -0.265625 3.84375 -0.421875 L 1.34375 -6.90625 L 0.65625 -6.90625 C 0.5625 -6.90625 0.515625 -6.945312 0.515625 -7.03125 L 0.515625 -7.578125 C 0.515625 -7.660156 0.5625 -7.703125 0.65625 -7.703125 L 3.0625 -7.703125 C 3.15625 -7.703125 3.203125 -7.660156 3.203125 -7.578125 L 3.203125 -7.03125 C 3.203125 -6.945312 3.15625 -6.90625 3.0625 -6.90625 L 2.34375 -6.90625 L 4.515625 -1.140625 L 4.578125 -1.140625 L 6.765625 -6.90625 L 6.03125 -6.90625 C 5.9375 -6.90625 5.890625 -6.945312 5.890625 -7.03125 L 5.890625 -7.578125 C 5.890625 -7.660156 5.9375 -7.703125 6.03125 -7.703125 L 8.453125 -7.703125 C 8.546875 -7.703125 8.59375 -7.660156 8.59375 -7.578125 L 8.59375 -7.03125 C 8.59375 -6.945312 8.546875 -6.90625 8.453125 -6.90625 L 7.734375 -6.90625 L 5.265625 -0.421875 C 5.210938 -0.273438 5.148438 -0.164062 5.078125 -0.09375 C 5.015625 -0.03125 4.910156 0 4.765625 0 Z M 4.765625 0 "/></g></g></g><g fill="#737373" fill-opacity="1"><g transform="translate(85.764425, 133.176997)"><g><path d="M 3.234375 0 L 0.65625 0 C 0.5625 0 0.515625 -0.0390625 0.515625 -0.125 L 0.515625 -0.671875 C 0.515625 -0.765625 0.5625 -0.8125 0.65625 -0.8125 L 1.46875 -0.8125 L 1.46875 -6.90625 L 0.65625 -6.90625 C 0.5625 -6.90625 0.515625 -6.945312 0.515625 -7.03125 L 0.515625 -7.578125 C 0.515625 -7.660156 0.5625 -7.703125 0.65625 -7.703125 L 3.234375 -7.703125 C 3.328125 -7.703125 3.375 -7.660156 3.375 -7.578125 L 3.375 -7.03125 C 3.375 -6.945312 3.328125 -6.90625 3.234375 -6.90625 L 2.40625 -6.90625 L 2.40625 -0.8125 L 3.234375 -0.8125 C 3.328125 -0.8125 3.375 -0.765625 3.375 -0.671875 L 3.375 -0.125 C 3.375 -0.0390625 3.328125 0 3.234375 0 Z M 3.234375 0 "/></g></g></g><g fill="#737373" fill-opacity="1"><g transform="translate(91.582767, 133.176997)"><g><path d="M 7.40625 0 L 6.84375 0 C 6.75 0 6.703125 -0.0390625 6.703125 -0.125 L 6.703125 -0.875 C 6.078125 -0.238281 5.238281 0.078125 4.1875 0.078125 C 3.144531 0.078125 2.269531 -0.285156 1.5625 -1.015625 C 0.863281 -1.742188 0.515625 -2.703125 0.515625 -3.890625 C 0.515625 -4.691406 0.691406 -5.390625 1.046875 -5.984375 C 1.398438 -6.585938 1.847656 -7.035156 2.390625 -7.328125 C 2.941406 -7.617188 3.535156 -7.765625 4.171875 -7.765625 C 5.265625 -7.765625 6.050781 -7.425781 6.53125 -6.75 L 6.53125 -7.578125 C 6.507812 -7.660156 6.550781 -7.703125 6.65625 -7.703125 L 7.25 -7.703125 C 7.34375 -7.703125 7.390625 -7.660156 7.390625 -7.578125 L 7.390625 -5.359375 C 7.390625 -5.273438 7.34375 -5.234375 7.25 -5.234375 L 6.578125 -5.234375 C 6.492188 -5.234375 6.453125 -5.273438 6.453125 -5.359375 L 6.453125 -5.5 C 6.453125 -5.8125 6.234375 -6.117188 5.796875 -6.421875 C 5.367188 -6.734375 4.816406 -6.890625 4.140625 -6.890625 C 3.472656 -6.890625 2.867188 -6.613281 2.328125 -6.0625 C 1.785156 -5.507812 1.515625 -4.769531 1.515625 -3.84375 C 1.515625 -2.914062 1.785156 -2.179688 2.328125 -1.640625 C 2.867188 -1.097656 3.472656 -0.828125 4.140625 -0.828125 C 4.816406 -0.828125 5.347656 -0.929688 5.734375 -1.140625 C 6.128906 -1.359375 6.425781 -1.613281 6.625 -1.90625 L 6.625 -2.75 L 4.625 -2.75 C 4.539062 -2.75 4.5 -2.796875 4.5 -2.890625 L 4.5 -3.375 C 4.5 -3.46875 4.539062 -3.515625 4.625 -3.515625 L 7.40625 -3.515625 C 7.488281 -3.515625 7.53125 -3.46875 7.53125 -3.375 L 7.53125 -0.125 C 7.53125 -0.0390625 7.488281 0 7.40625 0 Z M 7.40625 0 "/></g></g></g><g fill="#737373" fill-opacity="1"><g transform="translate(101.564658, 133.176997)"><g><path d="M 8.25 0 L 5.8125 0 C 5.726562 0 5.6875 -0.0390625 5.6875 -0.125 L 5.6875 -0.671875 C 5.6875 -0.765625 5.726562 -0.8125 5.8125 -0.8125 L 6.5625 -0.8125 L 5.875 -2.65625 L 2.875 -2.65625 L 2.171875 -0.8125 L 2.9375 -0.8125 C 3.019531 -0.8125 3.0625 -0.765625 3.0625 -0.671875 L 3.0625 -0.125 C 3.0625 -0.0390625 3.019531 0 2.9375 0 L 0.515625 0 C 0.429688 0 0.390625 -0.0390625 0.390625 -0.125 L 0.390625 -0.671875 C 0.390625 -0.765625 0.429688 -0.8125 0.515625 -0.8125 L 1.234375 -0.8125 L 3.546875 -6.90625 L 2.96875 -6.90625 C 2.875 -6.90625 2.828125 -6.945312 2.828125 -7.03125 L 2.828125 -7.578125 C 2.828125 -7.660156 2.875 -7.703125 2.96875 -7.703125 L 4.421875 -7.703125 C 4.597656 -7.703125 4.726562 -7.664062 4.8125 -7.59375 C 4.90625 -7.53125 4.984375 -7.414062 5.046875 -7.25 L 7.515625 -0.8125 L 8.25 -0.8125 C 8.332031 -0.8125 8.375 -0.765625 8.375 -0.671875 L 8.375 -0.125 C 8.375 -0.0390625 8.332031 0 8.25 0 Z M 5.578125 -3.40625 L 4.390625 -6.59375 L 4.359375 -6.59375 L 3.15625 -3.40625 Z M 5.578125 -3.40625 "/></g></g></g><g fill="#737373" fill-opacity="1"><g transform="translate(112.523051, 133.176997)"><g><path d="M 5.125 0 L 2.625 0 C 2.53125 0 2.484375 -0.046875 2.484375 -0.140625 L 2.484375 -0.671875 C 2.484375 -0.765625 2.53125 -0.8125 2.625 -0.8125 L 3.453125 -0.8125 L 3.453125 -6.90625 L 1.421875 -6.90625 L 1.421875 -5.765625 C 1.421875 -5.660156 1.367188 -5.609375 1.265625 -5.609375 L 0.671875 -5.609375 C 0.566406 -5.609375 0.515625 -5.660156 0.515625 -5.765625 L 0.515625 -7.5625 C 0.515625 -7.65625 0.566406 -7.703125 0.671875 -7.703125 L 7.140625 -7.703125 C 7.234375 -7.703125 7.28125 -7.65625 7.28125 -7.5625 L 7.28125 -5.765625 C 7.28125 -5.660156 7.234375 -5.609375 7.140625 -5.609375 L 6.53125 -5.609375 C 6.4375 -5.609375 6.390625 -5.660156 6.390625 -5.765625 L 6.390625 -6.90625 L 4.375 -6.90625 L 4.375 -0.8125 L 5.125 -0.8125 C 5.226562 -0.8125 5.28125 -0.765625 5.28125 -0.671875 L 5.28125 -0.140625 C 5.28125 -0.046875 5.226562 0 5.125 0 Z M 5.125 0 "/></g></g></g><g fill="#737373" fill-opacity="1"><g transform="translate(122.258128, 133.176997)"><g><path d="M 3.234375 0 L 0.65625 0 C 0.5625 0 0.515625 -0.0390625 0.515625 -0.125 L 0.515625 -0.671875 C 0.515625 -0.765625 0.5625 -0.8125 0.65625 -0.8125 L 1.46875 -0.8125 L 1.46875 -6.90625 L 0.65625 -6.90625 C 0.5625 -6.90625 0.515625 -6.945312 0.515625 -7.03125 L 0.515625 -7.578125 C 0.515625 -7.660156 0.5625 -7.703125 0.65625 -7.703125 L 3.234375 -7.703125 C 3.328125 -7.703125 3.375 -7.660156 3.375 -7.578125 L 3.375 -7.03125 C 3.375 -6.945312 3.328125 -6.90625 3.234375 -6.90625 L 2.40625 -6.90625 L 2.40625 -0.8125 L 3.234375 -0.8125 C 3.328125 -0.8125 3.375 -0.765625 3.375 -0.671875 L 3.375 -0.125 C 3.375 -0.0390625 3.328125 0 3.234375 0 Z M 3.234375 0 "/></g></g></g><g fill="#737373" fill-opacity="1"><g transform="translate(128.076472, 133.176997)"><g><path d="M 7.1875 0 L 6.609375 0 C 6.472656 0 6.363281 -0.0234375 6.28125 -0.078125 C 6.207031 -0.128906 6.132812 -0.210938 6.0625 -0.328125 L 2.96875 -5.1875 L 2.421875 -6.09375 L 2.40625 -6.09375 L 2.40625 -0.8125 L 3.234375 -0.8125 C 3.328125 -0.8125 3.375 -0.765625 3.375 -0.671875 L 3.375 -0.125 C 3.375 -0.0390625 3.328125 0 3.234375 0 L 0.65625 0 C 0.5625 0 0.515625 -0.0390625 0.515625 -0.125 L 0.515625 -0.671875 C 0.515625 -0.765625 0.5625 -0.8125 0.65625 -0.8125 L 1.46875 -0.8125 L 1.46875 -6.90625 L 0.65625 -6.90625 C 0.5625 -6.90625 0.515625 -6.945312 0.515625 -7.03125 L 0.515625 -7.578125 C 0.515625 -7.660156 0.5625 -7.703125 0.65625 -7.703125 L 2.15625 -7.703125 C 2.363281 -7.703125 2.546875 -7.582031 2.703125 -7.34375 L 5.765625 -2.5625 L 6.375 -1.515625 L 6.390625 -1.515625 L 6.390625 -6.90625 L 5.578125 -6.90625 C 5.484375 -6.90625 5.4375 -6.945312 5.4375 -7.03125 L 5.4375 -7.578125 C 5.4375 -7.660156 5.484375 -7.703125 5.578125 -7.703125 L 8.15625 -7.703125 C 8.238281 -7.703125 8.28125 -7.660156 8.28125 -7.578125 L 8.28125 -7.03125 C 8.28125 -6.945312 8.238281 -6.90625 8.15625 -6.90625 L 7.328125 -6.90625 L 7.328125 -0.125 C 7.328125 -0.0390625 7.28125 0 7.1875 0 Z M 7.1875 0 "/></g></g></g><g fill="#737373" fill-opacity="1"><g transform="translate(138.809509, 133.176997)"><g><path d="M 7.40625 0 L 6.84375 0 C 6.75 0 6.703125 -0.0390625 6.703125 -0.125 L 6.703125 -0.875 C 6.078125 -0.238281 5.238281 0.078125 4.1875 0.078125 C 3.144531 0.078125 2.269531 -0.285156 1.5625 -1.015625 C 0.863281 -1.742188 0.515625 -2.703125 0.515625 -3.890625 C 0.515625 -4.691406 0.691406 -5.390625 1.046875 -5.984375 C 1.398438 -6.585938 1.847656 -7.035156 2.390625 -7.328125 C 2.941406 -7.617188 3.535156 -7.765625 4.171875 -7.765625 C 5.265625 -7.765625 6.050781 -7.425781 6.53125 -6.75 L 6.53125 -7.578125 C 6.507812 -7.660156 6.550781 -7.703125 6.65625 -7.703125 L 7.25 -7.703125 C 7.34375 -7.703125 7.390625 -7.660156 7.390625 -7.578125 L 7.390625 -5.359375 C 7.390625 -5.273438 7.34375 -5.234375 7.25 -5.234375 L 6.578125 -5.234375 C 6.492188 -5.234375 6.453125 -5.273438 6.453125 -5.359375 L 6.453125 -5.5 C 6.453125 -5.8125 6.234375 -6.117188 5.796875 -6.421875 C 5.367188 -6.734375 4.816406 -6.890625 4.140625 -6.890625 C 3.472656 -6.890625 2.867188 -6.613281 2.328125 -6.0625 C 1.785156 -5.507812 1.515625 -4.769531 1.515625 -3.84375 C 1.515625 -2.914062 1.785156 -2.179688 2.328125 -1.640625 C 2.867188 -1.097656 3.472656 -0.828125 4.140625 -0.828125 C 4.816406 -0.828125 5.347656 -0.929688 5.734375 -1.140625 C 6.128906 -1.359375 6.425781 -1.613281 6.625 -1.90625 L 6.625 -2.75 L 4.625 -2.75 C 4.539062 -2.75 4.5 -2.796875 4.5 -2.890625 L 4.5 -3.375 C 4.5 -3.46875 4.539062 -3.515625 4.625 -3.515625 L 7.40625 -3.515625 C 7.488281 -3.515625 7.53125 -3.46875 7.53125 -3.375 L 7.53125 -0.125 C 7.53125 -0.0390625 7.488281 0 7.40625 0 Z M 7.40625 0 "/></g></g></g><g fill="#737373" fill-opacity="1"><g transform="translate(148.791395, 133.176997)"><g/></g></g><g fill="#737373" fill-opacity="1"><g transform="translate(154.083926, 133.176997)"><g><path d="M 5.125 0 L 2.625 0 C 2.53125 0 2.484375 -0.046875 2.484375 -0.140625 L 2.484375 -0.671875 C 2.484375 -0.765625 2.53125 -0.8125 2.625 -0.8125 L 3.453125 -0.8125 L 3.453125 -6.90625 L 1.421875 -6.90625 L 1.421875 -5.765625 C 1.421875 -5.660156 1.367188 -5.609375 1.265625 -5.609375 L 0.671875 -5.609375 C 0.566406 -5.609375 0.515625 -5.660156 0.515625 -5.765625 L 0.515625 -7.5625 C 0.515625 -7.65625 0.566406 -7.703125 0.671875 -7.703125 L 7.140625 -7.703125 C 7.234375 -7.703125 7.28125 -7.65625 7.28125 -7.5625 L 7.28125 -5.765625 C 7.28125 -5.660156 7.234375 -5.609375 7.140625 -5.609375 L 6.53125 -5.609375 C 6.4375 -5.609375 6.390625 -5.660156 6.390625 -5.765625 L 6.390625 -6.90625 L 4.375 -6.90625 L 4.375 -0.8125 L 5.125 -0.8125 C 5.226562 -0.8125 5.28125 -0.765625 5.28125 -0.671875 L 5.28125 -0.140625 C 5.28125 -0.046875 5.226562 0 5.125 0 Z M 5.125 0 "/></g></g></g><g fill="#737373" fill-opacity="1"><g transform="translate(163.818998, 133.176997)"><g><path d="M 8.15625 0 L 5.578125 0 C 5.484375 0 5.4375 -0.0390625 5.4375 -0.125 L 5.4375 -0.671875 C 5.4375 -0.765625 5.484375 -0.8125 5.578125 -0.8125 L 6.390625 -0.8125 L 6.390625 -3.4375 L 2.40625 -3.4375 L 2.40625 -0.8125 L 3.234375 -0.8125 C 3.328125 -0.8125 3.375 -0.765625 3.375 -0.671875 L 3.375 -0.125 C 3.375 -0.0390625 3.328125 0 3.234375 0 L 0.65625 0 C 0.5625 0 0.515625 -0.0390625 0.515625 -0.125 L 0.515625 -0.671875 C 0.515625 -0.765625 0.5625 -0.8125 0.65625 -0.8125 L 1.46875 -0.8125 L 1.46875 -6.90625 L 0.65625 -6.90625 C 0.5625 -6.90625 0.515625 -6.945312 0.515625 -7.03125 L 0.515625 -7.578125 C 0.515625 -7.660156 0.5625 -7.703125 0.65625 -7.703125 L 3.234375 -7.703125 C 3.328125 -7.703125 3.375 -7.660156 3.375 -7.578125 L 3.375 -7.03125 C 3.375 -6.945312 3.328125 -6.90625 3.234375 -6.90625 L 2.40625 -6.90625 L 2.40625 -4.21875 L 6.390625 -4.21875 L 6.390625 -6.90625 L 5.578125 -6.90625 C 5.484375 -6.90625 5.4375 -6.945312 5.4375 -7.03125 L 5.4375 -7.578125 C 5.4375 -7.660156 5.484375 -7.703125 5.578125 -7.703125 L 8.15625 -7.703125 C 8.238281 -7.703125 8.28125 -7.660156 8.28125 -7.578125 L 8.28125 -7.03125 C 8.28125 -6.945312 8.238281 -6.90625 8.15625 -6.90625 L 7.328125 -6.90625 L 7.328125 -0.8125 L 8.15625 -0.8125 C 8.238281 -0.8125 8.28125 -0.765625 8.28125 -0.671875 L 8.28125 -0.125 C 8.28125 -0.0390625 8.238281 0 8.15625 0 Z M 8.15625 0 "/></g></g></g><g fill="#737373" fill-opacity="1"><g transform="translate(174.552035, 133.176997)"><g><path d="M 6.359375 0 L 0.65625 0 C 0.5625 0 0.515625 -0.0390625 0.515625 -0.125 L 0.515625 -0.671875 C 0.515625 -0.765625 0.5625 -0.8125 0.65625 -0.8125 L 1.46875 -0.8125 L 1.46875 -6.90625 L 0.65625 -6.90625 C 0.5625 -6.90625 0.515625 -6.945312 0.515625 -7.03125 L 0.515625 -7.578125 C 0.515625 -7.660156 0.5625 -7.703125 0.65625 -7.703125 L 6.359375 -7.703125 C 6.453125 -7.703125 6.5 -7.660156 6.5 -7.578125 L 6.5 -5.84375 C 6.5 -5.75 6.453125 -5.703125 6.359375 -5.703125 L 5.78125 -5.703125 C 5.6875 -5.703125 5.640625 -5.75 5.640625 -5.84375 L 5.640625 -6.90625 L 2.40625 -6.90625 L 2.40625 -4.234375 L 5.125 -4.234375 C 5.21875 -4.234375 5.265625 -4.191406 5.265625 -4.109375 L 5.265625 -3.5625 C 5.265625 -3.476562 5.21875 -3.4375 5.125 -3.4375 L 2.40625 -3.4375 L 2.40625 -0.8125 L 5.640625 -0.8125 L 5.640625 -1.859375 C 5.640625 -1.941406 5.6875 -1.984375 5.78125 -1.984375 L 6.359375 -1.984375 C 6.453125 -1.984375 6.5 -1.941406 6.5 -1.859375 L 6.5 -0.125 C 6.5 -0.0390625 6.453125 0 6.359375 0 Z M 6.359375 0 "/></g></g></g><g fill="#737373" fill-opacity="1"><g transform="translate(183.49303, 133.176997)"><g/></g></g><g fill="#737373" fill-opacity="1"><g transform="translate(188.78556, 133.176997)"><g><path d="M 9.21875 0 L 6.734375 0 C 6.648438 0 6.609375 -0.0390625 6.609375 -0.125 L 6.609375 -0.671875 C 6.609375 -0.765625 6.648438 -0.8125 6.734375 -0.8125 L 7.453125 -0.8125 L 7.453125 -6.15625 L 5.40625 -1.078125 C 5.320312 -0.867188 5.164062 -0.765625 4.9375 -0.765625 C 4.707031 -0.765625 4.550781 -0.867188 4.46875 -1.078125 L 2.421875 -6.15625 L 2.40625 -6.15625 L 2.40625 -0.8125 L 3.125 -0.8125 C 3.21875 -0.8125 3.265625 -0.765625 3.265625 -0.671875 L 3.265625 -0.125 C 3.265625 -0.0390625 3.21875 0 3.125 0 L 0.65625 0 C 0.5625 0 0.515625 -0.0390625 0.515625 -0.125 L 0.515625 -0.671875 C 0.515625 -0.765625 0.5625 -0.8125 0.65625 -0.8125 L 1.46875 -0.8125 L 1.46875 -6.90625 L 0.65625 -6.90625 C 0.5625 -6.90625 0.515625 -6.945312 0.515625 -7.03125 L 0.515625 -7.578125 C 0.515625 -7.660156 0.5625 -7.703125 0.65625 -7.703125 L 2.3125 -7.703125 C 2.550781 -7.703125 2.71875 -7.582031 2.8125 -7.34375 L 4.40625 -3.484375 L 4.921875 -2.125 L 4.953125 -2.125 C 5.160156 -2.6875 5.328125 -3.128906 5.453125 -3.453125 L 7.0625 -7.34375 C 7.15625 -7.582031 7.328125 -7.703125 7.578125 -7.703125 L 9.21875 -7.703125 C 9.300781 -7.703125 9.34375 -7.660156 9.34375 -7.578125 L 9.34375 -7.03125 C 9.34375 -6.945312 9.300781 -6.90625 9.21875 -6.90625 L 8.390625 -6.90625 L 8.390625 -0.8125 L 9.21875 -0.8125 C 9.300781 -0.8125 9.34375 -0.765625 9.34375 -0.671875 L 9.34375 -0.125 C 9.34375 -0.0390625 9.300781 0 9.21875 0 Z M 9.21875 0 "/></g></g></g><g fill="#737373" fill-opacity="1"><g transform="translate(200.580942, 133.176997)"><g><path d="M 8.25 0 L 5.8125 0 C 5.726562 0 5.6875 -0.0390625 5.6875 -0.125 L 5.6875 -0.671875 C 5.6875 -0.765625 5.726562 -0.8125 5.8125 -0.8125 L 6.5625 -0.8125 L 5.875 -2.65625 L 2.875 -2.65625 L 2.171875 -0.8125 L 2.9375 -0.8125 C 3.019531 -0.8125 3.0625 -0.765625 3.0625 -0.671875 L 3.0625 -0.125 C 3.0625 -0.0390625 3.019531 0 2.9375 0 L 0.515625 0 C 0.429688 0 0.390625 -0.0390625 0.390625 -0.125 L 0.390625 -0.671875 C 0.390625 -0.765625 0.429688 -0.8125 0.515625 -0.8125 L 1.234375 -0.8125 L 3.546875 -6.90625 L 2.96875 -6.90625 C 2.875 -6.90625 2.828125 -6.945312 2.828125 -7.03125 L 2.828125 -7.578125 C 2.828125 -7.660156 2.875 -7.703125 2.96875 -7.703125 L 4.421875 -7.703125 C 4.597656 -7.703125 4.726562 -7.664062 4.8125 -7.59375 C 4.90625 -7.53125 4.984375 -7.414062 5.046875 -7.25 L 7.515625 -0.8125 L 8.25 -0.8125 C 8.332031 -0.8125 8.375 -0.765625 8.375 -0.671875 L 8.375 -0.125 C 8.375 -0.0390625 8.332031 0 8.25 0 Z M 5.578125 -3.40625 L 4.390625 -6.59375 L 4.359375 -6.59375 L 3.15625 -3.40625 Z M 5.578125 -3.40625 "/></g></g></g><g fill="#737373" fill-opacity="1"><g transform="translate(211.539331, 133.176997)"><g><path d="M 6.21875 0 L 0.671875 0 C 0.566406 0 0.515625 -0.046875 0.515625 -0.140625 L 0.515625 -0.59375 C 0.515625 -0.664062 0.585938 -0.789062 0.734375 -0.96875 L 5.09375 -6.90625 L 1.421875 -6.90625 L 1.421875 -6.03125 C 1.421875 -5.925781 1.367188 -5.875 1.265625 -5.875 L 0.671875 -5.875 C 0.566406 -5.875 0.515625 -5.925781 0.515625 -6.03125 L 0.515625 -7.5625 C 0.515625 -7.65625 0.566406 -7.703125 0.671875 -7.703125 L 6.21875 -7.703125 C 6.3125 -7.703125 6.359375 -7.65625 6.359375 -7.5625 L 6.359375 -7.171875 C 6.359375 -7.046875 6.289062 -6.898438 6.15625 -6.734375 L 1.796875 -0.8125 L 5.46875 -0.8125 L 5.46875 -1.671875 C 5.46875 -1.773438 5.515625 -1.828125 5.609375 -1.828125 L 6.21875 -1.828125 C 6.3125 -1.828125 6.359375 -1.773438 6.359375 -1.671875 L 6.359375 -0.140625 C 6.359375 -0.046875 6.3125 0 6.21875 0 Z M 6.21875 0 "/></g></g></g><g fill="#737373" fill-opacity="1"><g transform="translate(220.351564, 133.176997)"><g><path d="M 6.359375 0 L 0.65625 0 C 0.5625 0 0.515625 -0.0390625 0.515625 -0.125 L 0.515625 -0.671875 C 0.515625 -0.765625 0.5625 -0.8125 0.65625 -0.8125 L 1.46875 -0.8125 L 1.46875 -6.90625 L 0.65625 -6.90625 C 0.5625 -6.90625 0.515625 -6.945312 0.515625 -7.03125 L 0.515625 -7.578125 C 0.515625 -7.660156 0.5625 -7.703125 0.65625 -7.703125 L 6.359375 -7.703125 C 6.453125 -7.703125 6.5 -7.660156 6.5 -7.578125 L 6.5 -5.84375 C 6.5 -5.75 6.453125 -5.703125 6.359375 -5.703125 L 5.78125 -5.703125 C 5.6875 -5.703125 5.640625 -5.75 5.640625 -5.84375 L 5.640625 -6.90625 L 2.40625 -6.90625 L 2.40625 -4.234375 L 5.125 -4.234375 C 5.21875 -4.234375 5.265625 -4.191406 5.265625 -4.109375 L 5.265625 -3.5625 C 5.265625 -3.476562 5.21875 -3.4375 5.125 -3.4375 L 2.40625 -3.4375 L 2.40625 -0.8125 L 5.640625 -0.8125 L 5.640625 -1.859375 C 5.640625 -1.941406 5.6875 -1.984375 5.78125 -1.984375 L 6.359375 -1.984375 C 6.453125 -1.984375 6.5 -1.941406 6.5 -1.859375 L 6.5 -0.125 C 6.5 -0.0390625 6.453125 0 6.359375 0 Z M 6.359375 0 "/></g></g></g><g fill="#737373" fill-opacity="1"><g transform="translate(229.292569, 133.176997)"><g/></g></g><g fill="#737373" fill-opacity="1"><g transform="translate(234.585109, 133.176997)"><g><path d="M 7.984375 -3.890625 C 7.984375 -2.710938 7.628906 -1.753906 6.921875 -1.015625 C 6.222656 -0.285156 5.335938 0.078125 4.265625 0.078125 C 3.191406 0.078125 2.296875 -0.289062 1.578125 -1.03125 C 0.867188 -1.769531 0.515625 -2.722656 0.515625 -3.890625 C 0.515625 -5.066406 0.878906 -6.003906 1.609375 -6.703125 C 2.347656 -7.410156 3.226562 -7.765625 4.25 -7.765625 C 5.28125 -7.765625 6.160156 -7.410156 6.890625 -6.703125 C 7.617188 -6.003906 7.984375 -5.066406 7.984375 -3.890625 Z M 2.34375 -1.609375 C 2.894531 -1.066406 3.535156 -0.796875 4.265625 -0.796875 C 4.992188 -0.796875 5.628906 -1.066406 6.171875 -1.609375 C 6.710938 -2.160156 6.984375 -2.910156 6.984375 -3.859375 C 6.984375 -4.816406 6.707031 -5.566406 6.15625 -6.109375 C 5.601562 -6.648438 4.972656 -6.921875 4.265625 -6.921875 C 3.554688 -6.921875 2.921875 -6.648438 2.359375 -6.109375 C 1.804688 -5.566406 1.53125 -4.816406 1.53125 -3.859375 C 1.53125 -2.910156 1.800781 -2.160156 2.34375 -1.609375 Z M 2.34375 -1.609375 "/></g></g></g><g fill="#737373" fill-opacity="1"><g transform="translate(245.028414, 133.176997)"><g><path d="M 3.625 0 L 0.65625 0 C 0.5625 0 0.515625 -0.0390625 0.515625 -0.125 L 0.515625 -0.671875 C 0.515625 -0.765625 0.5625 -0.8125 0.65625 -0.8125 L 1.46875 -0.8125 L 1.46875 -6.90625 L 0.65625 -6.90625 C 0.5625 -6.90625 0.515625 -6.945312 0.515625 -7.03125 L 0.515625 -7.578125 C 0.515625 -7.660156 0.5625 -7.703125 0.65625 -7.703125 L 6.15625 -7.703125 C 6.25 -7.703125 6.296875 -7.660156 6.296875 -7.578125 L 6.296875 -5.84375 C 6.296875 -5.75 6.25 -5.703125 6.15625 -5.703125 L 5.578125 -5.703125 C 5.492188 -5.703125 5.453125 -5.75 5.453125 -5.84375 L 5.453125 -6.90625 L 2.40625 -6.90625 L 2.40625 -4.234375 L 4.921875 -4.234375 C 5.015625 -4.234375 5.0625 -4.191406 5.0625 -4.109375 L 5.0625 -3.5625 C 5.0625 -3.476562 5.015625 -3.4375 4.921875 -3.4375 L 2.40625 -3.4375 L 2.40625 -0.8125 L 3.625 -0.8125 C 3.707031 -0.8125 3.75 -0.765625 3.75 -0.671875 L 3.75 -0.125 C 3.75 -0.0390625 3.707031 0 3.625 0 Z M 3.625 0 "/></g></g></g><g fill="#737373" fill-opacity="1"><g transform="translate(253.776258, 133.176997)"><g/></g></g><g fill="#737373" fill-opacity="1"><g transform="translate(259.068798, 133.176997)"><g><path d="M 7.53125 0 L 6.609375 0 C 6.347656 0 6.128906 -0.171875 5.953125 -0.515625 L 4.953125 -2.5625 C 4.890625 -2.675781 4.832031 -2.765625 4.78125 -2.828125 C 4.738281 -2.898438 4.640625 -2.96875 4.484375 -3.03125 C 4.335938 -3.09375 4.148438 -3.125 3.921875 -3.125 L 2.40625 -3.125 L 2.40625 -0.8125 L 3.390625 -0.8125 C 3.484375 -0.8125 3.53125 -0.765625 3.53125 -0.671875 L 3.53125 -0.125 C 3.53125 -0.0390625 3.484375 0 3.390625 0 L 0.65625 0 C 0.5625 0 0.515625 -0.0390625 0.515625 -0.125 L 0.515625 -0.671875 C 0.515625 -0.765625 0.5625 -0.8125 0.65625 -0.8125 L 1.46875 -0.8125 L 1.46875 -6.90625 L 0.65625 -6.90625 C 0.5625 -6.90625 0.515625 -6.945312 0.515625 -7.03125 L 0.515625 -7.578125 C 0.515625 -7.660156 0.5625 -7.703125 0.65625 -7.703125 L 3.0625 -7.703125 C 3.144531 -7.703125 3.1875 -7.660156 3.1875 -7.578125 L 3.1875 -7.03125 C 3.1875 -6.945312 3.144531 -6.90625 3.0625 -6.90625 L 2.40625 -6.90625 L 2.40625 -3.890625 L 3.53125 -3.890625 C 4.289062 -3.890625 4.851562 -4.113281 5.21875 -4.5625 C 5.59375 -5.007812 5.78125 -5.789062 5.78125 -6.90625 L 5.046875 -6.90625 C 4.960938 -6.90625 4.921875 -6.945312 4.921875 -7.03125 L 4.921875 -7.578125 C 4.921875 -7.660156 4.960938 -7.703125 5.046875 -7.703125 L 7.4375 -7.703125 C 7.519531 -7.703125 7.5625 -7.660156 7.5625 -7.578125 L 7.5625 -7.03125 C 7.5625 -6.945312 7.519531 -6.90625 7.4375 -6.90625 L 6.703125 -6.90625 C 6.703125 -5.175781 6.210938 -4.046875 5.234375 -3.515625 C 5.398438 -3.441406 5.53125 -3.34375 5.625 -3.21875 C 5.71875 -3.09375 5.828125 -2.90625 5.953125 -2.65625 L 6.875 -0.8125 L 7.53125 -0.8125 C 7.625 -0.8125 7.671875 -0.765625 7.671875 -0.671875 L 7.671875 -0.125 C 7.671875 -0.0390625 7.625 0 7.53125 0 Z M 7.53125 0 "/></g></g></g><g fill="#737373" fill-opacity="1"><g transform="translate(269.190182, 133.176997)"><g><path d="M 3.234375 0 L 0.65625 0 C 0.5625 0 0.515625 -0.0390625 0.515625 -0.125 L 0.515625 -0.671875 C 0.515625 -0.765625 0.5625 -0.8125 0.65625 -0.8125 L 1.46875 -0.8125 L 1.46875 -6.90625 L 0.65625 -6.90625 C 0.5625 -6.90625 0.515625 -6.945312 0.515625 -7.03125 L 0.515625 -7.578125 C 0.515625 -7.660156 0.5625 -7.703125 0.65625 -7.703125 L 3.234375 -7.703125 C 3.328125 -7.703125 3.375 -7.660156 3.375 -7.578125 L 3.375 -7.03125 C 3.375 -6.945312 3.328125 -6.90625 3.234375 -6.90625 L 2.40625 -6.90625 L 2.40625 -0.8125 L 3.234375 -0.8125 C 3.328125 -0.8125 3.375 -0.765625 3.375 -0.671875 L 3.375 -0.125 C 3.375 -0.0390625 3.328125 0 3.234375 0 Z M 3.234375 0 "/></g></g></g><g fill="#737373" fill-opacity="1"><g transform="translate(275.008531, 133.176997)"><g><path d="M 3.671875 0 L 0.59375 0 C 0.507812 0 0.46875 -0.0390625 0.46875 -0.125 L 0.46875 -0.671875 C 0.46875 -0.765625 0.507812 -0.8125 0.59375 -0.8125 L 1.421875 -0.8125 L 1.421875 -6.90625 L 0.59375 -6.90625 C 0.507812 -6.90625 0.46875 -6.945312 0.46875 -7.03125 L 0.46875 -7.578125 C 0.46875 -7.660156 0.507812 -7.703125 0.59375 -7.703125 L 3.484375 -7.703125 C 4.671875 -7.703125 5.613281 -7.359375 6.3125 -6.671875 C 7.019531 -5.992188 7.375 -5.054688 7.375 -3.859375 C 7.375 -2.671875 7.039062 -1.726562 6.375 -1.03125 C 5.707031 -0.34375 4.804688 0 3.671875 0 Z M 2.34375 -0.8125 L 3.40625 -0.8125 C 5.394531 -0.820312 6.390625 -1.832031 6.390625 -3.84375 C 6.390625 -4.8125 6.132812 -5.5625 5.625 -6.09375 C 5.113281 -6.632812 4.363281 -6.90625 3.375 -6.90625 L 2.34375 -6.90625 Z M 2.34375 -0.8125 "/></g></g></g><g fill="#737373" fill-opacity="1"><g transform="translate(284.88312, 133.176997)"><g><path d="M 7.1875 0 L 6.609375 0 C 6.472656 0 6.363281 -0.0234375 6.28125 -0.078125 C 6.207031 -0.128906 6.132812 -0.210938 6.0625 -0.328125 L 2.96875 -5.1875 L 2.421875 -6.09375 L 2.40625 -6.09375 L 2.40625 -0.8125 L 3.234375 -0.8125 C 3.328125 -0.8125 3.375 -0.765625 3.375 -0.671875 L 3.375 -0.125 C 3.375 -0.0390625 3.328125 0 3.234375 0 L 0.65625 0 C 0.5625 0 0.515625 -0.0390625 0.515625 -0.125 L 0.515625 -0.671875 C 0.515625 -0.765625 0.5625 -0.8125 0.65625 -0.8125 L 1.46875 -0.8125 L 1.46875 -6.90625 L 0.65625 -6.90625 C 0.5625 -6.90625 0.515625 -6.945312 0.515625 -7.03125 L 0.515625 -7.578125 C 0.515625 -7.660156 0.5625 -7.703125 0.65625 -7.703125 L 2.15625 -7.703125 C 2.363281 -7.703125 2.546875 -7.582031 2.703125 -7.34375 L 5.765625 -2.5625 L 6.375 -1.515625 L 6.390625 -1.515625 L 6.390625 -6.90625 L 5.578125 -6.90625 C 5.484375 -6.90625 5.4375 -6.945312 5.4375 -7.03125 L 5.4375 -7.578125 C 5.4375 -7.660156 5.484375 -7.703125 5.578125 -7.703125 L 8.15625 -7.703125 C 8.238281 -7.703125 8.28125 -7.660156 8.28125 -7.578125 L 8.28125 -7.03125 C 8.28125 -6.945312 8.238281 -6.90625 8.15625 -6.90625 L 7.328125 -6.90625 L 7.328125 -0.125 C 7.328125 -0.0390625 7.28125 0 7.1875 0 Z M 7.1875 0 "/></g></g></g><g fill="#737373" fill-opacity="1"><g transform="translate(295.616166, 133.176997)"><g><path d="M 6.359375 0 L 0.65625 0 C 0.5625 0 0.515625 -0.0390625 0.515625 -0.125 L 0.515625 -0.671875 C 0.515625 -0.765625 0.5625 -0.8125 0.65625 -0.8125 L 1.46875 -0.8125 L 1.46875 -6.90625 L 0.65625 -6.90625 C 0.5625 -6.90625 0.515625 -6.945312 0.515625 -7.03125 L 0.515625 -7.578125 C 0.515625 -7.660156 0.5625 -7.703125 0.65625 -7.703125 L 6.359375 -7.703125 C 6.453125 -7.703125 6.5 -7.660156 6.5 -7.578125 L 6.5 -5.84375 C 6.5 -5.75 6.453125 -5.703125 6.359375 -5.703125 L 5.78125 -5.703125 C 5.6875 -5.703125 5.640625 -5.75 5.640625 -5.84375 L 5.640625 -6.90625 L 2.40625 -6.90625 L 2.40625 -4.234375 L 5.125 -4.234375 C 5.21875 -4.234375 5.265625 -4.191406 5.265625 -4.109375 L 5.265625 -3.5625 C 5.265625 -3.476562 5.21875 -3.4375 5.125 -3.4375 L 2.40625 -3.4375 L 2.40625 -0.8125 L 5.640625 -0.8125 L 5.640625 -1.859375 C 5.640625 -1.941406 5.6875 -1.984375 5.78125 -1.984375 L 6.359375 -1.984375 C 6.453125 -1.984375 6.5 -1.941406 6.5 -1.859375 L 6.5 -0.125 C 6.5 -0.0390625 6.453125 0 6.359375 0 Z M 6.359375 0 "/></g></g></g><g fill="#737373" fill-opacity="1"><g transform="translate(304.557171, 133.176997)"><g><path d="M 5.359375 0 L 2.78125 0 C 2.695312 0 2.65625 -0.0390625 2.65625 -0.125 L 2.65625 -0.671875 C 2.65625 -0.765625 2.695312 -0.8125 2.78125 -0.8125 L 3.609375 -0.8125 L 3.609375 -3.109375 L 3.171875 -3.84375 C 2.242188 -5.5 1.648438 -6.519531 1.390625 -6.90625 L 0.65625 -6.90625 C 0.5625 -6.90625 0.515625 -6.945312 0.515625 -7.03125 L 0.515625 -7.578125 C 0.515625 -7.660156 0.5625 -7.703125 0.65625 -7.703125 L 3.0625 -7.703125 C 3.15625 -7.703125 3.203125 -7.660156 3.203125 -7.578125 L 3.203125 -7.03125 C 3.203125 -6.945312 3.15625 -6.90625 3.0625 -6.90625 L 2.359375 -6.90625 L 4.046875 -3.921875 L 4.109375 -3.921875 L 5.78125 -6.90625 L 5.078125 -6.90625 C 4.992188 -6.90625 4.953125 -6.945312 4.953125 -7.03125 L 4.953125 -7.578125 C 4.953125 -7.660156 4.992188 -7.703125 5.078125 -7.703125 L 7.5 -7.703125 C 7.582031 -7.703125 7.625 -7.660156 7.625 -7.578125 L 7.625 -7.03125 C 7.625 -6.945312 7.582031 -6.90625 7.5 -6.90625 L 6.765625 -6.90625 C 6.410156 -6.382812 5.953125 -5.625 5.390625 -4.625 C 4.828125 -3.625 4.546875 -3.117188 4.546875 -3.109375 L 4.546875 -0.8125 L 5.359375 -0.8125 C 5.453125 -0.8125 5.5 -0.765625 5.5 -0.671875 L 5.5 -0.125 C 5.5 -0.0390625 5.453125 0 5.359375 0 Z M 5.359375 0 "/></g></g></g><g fill="#737373" fill-opacity="1"><g transform="translate(85.943784, 145.663655)"><g><path d="M 5.125 0 L 2.625 0 C 2.53125 0 2.484375 -0.046875 2.484375 -0.140625 L 2.484375 -0.671875 C 2.484375 -0.765625 2.53125 -0.8125 2.625 -0.8125 L 3.453125 -0.8125 L 3.453125 -6.90625 L 1.421875 -6.90625 L 1.421875 -5.765625 C 1.421875 -5.660156 1.367188 -5.609375 1.265625 -5.609375 L 0.671875 -5.609375 C 0.566406 -5.609375 0.515625 -5.660156 0.515625 -5.765625 L 0.515625 -7.5625 C 0.515625 -7.65625 0.566406 -7.703125 0.671875 -7.703125 L 7.140625 -7.703125 C 7.234375 -7.703125 7.28125 -7.65625 7.28125 -7.5625 L 7.28125 -5.765625 C 7.28125 -5.660156 7.234375 -5.609375 7.140625 -5.609375 L 6.53125 -5.609375 C 6.4375 -5.609375 6.390625 -5.660156 6.390625 -5.765625 L 6.390625 -6.90625 L 4.375 -6.90625 L 4.375 -0.8125 L 5.125 -0.8125 C 5.226562 -0.8125 5.28125 -0.765625 5.28125 -0.671875 L 5.28125 -0.140625 C 5.28125 -0.046875 5.226562 0 5.125 0 Z M 5.125 0 "/></g></g></g><g fill="#737373" fill-opacity="1"><g transform="translate(95.678859, 145.663655)"><g><path d="M 7.03125 0 L 6.09375 0 C 5.832031 0 5.617188 -0.171875 5.453125 -0.515625 L 4.4375 -2.5625 C 4.351562 -2.738281 4.265625 -2.867188 4.171875 -2.953125 C 4.078125 -3.046875 3.941406 -3.097656 3.765625 -3.109375 L 2.40625 -3.109375 L 2.40625 -0.8125 L 3.375 -0.8125 C 3.457031 -0.8125 3.5 -0.765625 3.5 -0.671875 L 3.5 -0.125 C 3.5 -0.0390625 3.457031 0 3.375 0 L 0.65625 0 C 0.5625 0 0.515625 -0.0390625 0.515625 -0.125 L 0.515625 -0.671875 C 0.515625 -0.765625 0.5625 -0.8125 0.65625 -0.8125 L 1.46875 -0.8125 L 1.46875 -6.90625 L 0.65625 -6.90625 C 0.5625 -6.90625 0.515625 -6.945312 0.515625 -7.03125 L 0.515625 -7.578125 C 0.515625 -7.660156 0.5625 -7.703125 0.65625 -7.703125 L 3.96875 -7.703125 C 4.726562 -7.703125 5.347656 -7.5 5.828125 -7.09375 C 6.304688 -6.695312 6.546875 -6.128906 6.546875 -5.390625 C 6.546875 -4.265625 6.019531 -3.5625 4.96875 -3.28125 C 5.101562 -3.175781 5.269531 -2.9375 5.46875 -2.5625 L 6.375 -0.8125 L 7.03125 -0.8125 C 7.113281 -0.8125 7.15625 -0.765625 7.15625 -0.671875 L 7.15625 -0.125 C 7.15625 -0.0390625 7.113281 0 7.03125 0 Z M 2.40625 -3.859375 L 3.78125 -3.859375 C 5 -3.859375 5.609375 -4.359375 5.609375 -5.359375 C 5.609375 -6.390625 5 -6.90625 3.78125 -6.90625 L 2.40625 -6.90625 Z M 2.40625 -3.859375 "/></g></g></g><g fill="#737373" fill-opacity="1"><g transform="translate(105.285164, 145.663655)"><g><path d="M 8.25 0 L 5.8125 0 C 5.726562 0 5.6875 -0.0390625 5.6875 -0.125 L 5.6875 -0.671875 C 5.6875 -0.765625 5.726562 -0.8125 5.8125 -0.8125 L 6.5625 -0.8125 L 5.875 -2.65625 L 2.875 -2.65625 L 2.171875 -0.8125 L 2.9375 -0.8125 C 3.019531 -0.8125 3.0625 -0.765625 3.0625 -0.671875 L 3.0625 -0.125 C 3.0625 -0.0390625 3.019531 0 2.9375 0 L 0.515625 0 C 0.429688 0 0.390625 -0.0390625 0.390625 -0.125 L 0.390625 -0.671875 C 0.390625 -0.765625 0.429688 -0.8125 0.515625 -0.8125 L 1.234375 -0.8125 L 3.546875 -6.90625 L 2.96875 -6.90625 C 2.875 -6.90625 2.828125 -6.945312 2.828125 -7.03125 L 2.828125 -7.578125 C 2.828125 -7.660156 2.875 -7.703125 2.96875 -7.703125 L 4.421875 -7.703125 C 4.597656 -7.703125 4.726562 -7.664062 4.8125 -7.59375 C 4.90625 -7.53125 4.984375 -7.414062 5.046875 -7.25 L 7.515625 -0.8125 L 8.25 -0.8125 C 8.332031 -0.8125 8.375 -0.765625 8.375 -0.671875 L 8.375 -0.125 C 8.375 -0.0390625 8.332031 0 8.25 0 Z M 5.578125 -3.40625 L 4.390625 -6.59375 L 4.359375 -6.59375 L 3.15625 -3.40625 Z M 5.578125 -3.40625 "/></g></g></g><g fill="#737373" fill-opacity="1"><g transform="translate(116.243555, 145.663655)"><g><path d="M 7.1875 0 L 6.609375 0 C 6.472656 0 6.363281 -0.0234375 6.28125 -0.078125 C 6.207031 -0.128906 6.132812 -0.210938 6.0625 -0.328125 L 2.96875 -5.1875 L 2.421875 -6.09375 L 2.40625 -6.09375 L 2.40625 -0.8125 L 3.234375 -0.8125 C 3.328125 -0.8125 3.375 -0.765625 3.375 -0.671875 L 3.375 -0.125 C 3.375 -0.0390625 3.328125 0 3.234375 0 L 0.65625 0 C 0.5625 0 0.515625 -0.0390625 0.515625 -0.125 L 0.515625 -0.671875 C 0.515625 -0.765625 0.5625 -0.8125 0.65625 -0.8125 L 1.46875 -0.8125 L 1.46875 -6.90625 L 0.65625 -6.90625 C 0.5625 -6.90625 0.515625 -6.945312 0.515625 -7.03125 L 0.515625 -7.578125 C 0.515625 -7.660156 0.5625 -7.703125 0.65625 -7.703125 L 2.15625 -7.703125 C 2.363281 -7.703125 2.546875 -7.582031 2.703125 -7.34375 L 5.765625 -2.5625 L 6.375 -1.515625 L 6.390625 -1.515625 L 6.390625 -6.90625 L 5.578125 -6.90625 C 5.484375 -6.90625 5.4375 -6.945312 5.4375 -7.03125 L 5.4375 -7.578125 C 5.4375 -7.660156 5.484375 -7.703125 5.578125 -7.703125 L 8.15625 -7.703125 C 8.238281 -7.703125 8.28125 -7.660156 8.28125 -7.578125 L 8.28125 -7.03125 C 8.28125 -6.945312 8.238281 -6.90625 8.15625 -6.90625 L 7.328125 -6.90625 L 7.328125 -0.125 C 7.328125 -0.0390625 7.28125 0 7.1875 0 Z M 7.1875 0 "/></g></g></g><g fill="#737373" fill-opacity="1"><g transform="translate(126.976592, 145.663655)"><g><path d="M 1.25 0 L 0.65625 0 C 0.5625 0 0.515625 -0.0390625 0.515625 -0.125 L 0.515625 -2.640625 C 0.515625 -2.734375 0.5625 -2.78125 0.65625 -2.78125 L 1.328125 -2.78125 C 1.410156 -2.78125 1.453125 -2.734375 1.453125 -2.640625 L 1.453125 -2.421875 C 1.453125 -2.285156 1.535156 -2.101562 1.703125 -1.875 C 1.867188 -1.644531 2.035156 -1.457031 2.203125 -1.3125 C 2.367188 -1.175781 2.585938 -1.054688 2.859375 -0.953125 C 3.140625 -0.847656 3.4375 -0.796875 3.75 -0.796875 C 4.300781 -0.796875 4.734375 -0.910156 5.046875 -1.140625 C 5.359375 -1.367188 5.515625 -1.6875 5.515625 -2.09375 C 5.515625 -2.332031 5.425781 -2.535156 5.25 -2.703125 C 5.070312 -2.867188 4.84375 -3 4.5625 -3.09375 C 4.289062 -3.195312 3.984375 -3.289062 3.640625 -3.375 C 3.304688 -3.46875 2.96875 -3.566406 2.625 -3.671875 C 2.28125 -3.785156 1.96875 -3.914062 1.6875 -4.0625 C 1.414062 -4.21875 1.191406 -4.429688 1.015625 -4.703125 C 0.835938 -4.984375 0.75 -5.3125 0.75 -5.6875 C 0.75 -6.289062 0.972656 -6.785156 1.421875 -7.171875 C 1.878906 -7.566406 2.492188 -7.765625 3.265625 -7.765625 C 4.234375 -7.765625 4.941406 -7.484375 5.390625 -6.921875 L 5.359375 -7.59375 C 5.359375 -7.675781 5.40625 -7.71875 5.5 -7.71875 L 6.109375 -7.71875 C 6.191406 -7.71875 6.234375 -7.675781 6.234375 -7.59375 L 6.234375 -5.25 C 6.234375 -5.164062 6.191406 -5.125 6.109375 -5.125 L 5.4375 -5.125 C 5.34375 -5.125 5.296875 -5.164062 5.296875 -5.25 L 5.296875 -5.546875 C 5.296875 -5.835938 5.128906 -6.132812 4.796875 -6.4375 C 4.472656 -6.738281 3.992188 -6.890625 3.359375 -6.890625 C 2.890625 -6.890625 2.507812 -6.773438 2.21875 -6.546875 C 1.925781 -6.328125 1.78125 -6.039062 1.78125 -5.6875 C 1.78125 -5.4375 1.867188 -5.222656 2.046875 -5.046875 C 2.222656 -4.867188 2.453125 -4.722656 2.734375 -4.609375 C 3.023438 -4.503906 3.34375 -4.40625 3.6875 -4.3125 C 4.03125 -4.226562 4.375 -4.128906 4.71875 -4.015625 C 5.0625 -3.910156 5.375 -3.78125 5.65625 -3.625 C 5.945312 -3.476562 6.179688 -3.273438 6.359375 -3.015625 C 6.546875 -2.753906 6.640625 -2.445312 6.640625 -2.09375 C 6.640625 -1.46875 6.410156 -0.945312 5.953125 -0.53125 C 5.503906 -0.125 4.832031 0.078125 3.9375 0.078125 C 3.28125 0.078125 2.734375 -0.0507812 2.296875 -0.3125 C 1.867188 -0.582031 1.5625 -0.875 1.375 -1.1875 L 1.390625 -0.125 C 1.390625 -0.0390625 1.34375 0 1.25 0 Z M 1.25 0 "/></g></g></g><g fill="#737373" fill-opacity="1"><g transform="translate(136.057099, 145.663655)"><g><path d="M 3.453125 0 L 0.65625 0 C 0.5625 0 0.515625 -0.0390625 0.515625 -0.125 L 0.515625 -0.671875 C 0.515625 -0.765625 0.5625 -0.8125 0.65625 -0.8125 L 1.46875 -0.8125 L 1.46875 -6.90625 L 0.65625 -6.90625 C 0.5625 -6.90625 0.515625 -6.945312 0.515625 -7.03125 L 0.515625 -7.578125 C 0.515625 -7.660156 0.5625 -7.703125 0.65625 -7.703125 L 3.96875 -7.703125 C 4.71875 -7.703125 5.332031 -7.484375 5.8125 -7.046875 C 6.300781 -6.609375 6.546875 -6.015625 6.546875 -5.265625 C 6.546875 -4.515625 6.304688 -3.929688 5.828125 -3.515625 C 5.359375 -3.109375 4.695312 -2.90625 3.84375 -2.90625 L 2.40625 -2.90625 L 2.40625 -0.8125 L 3.453125 -0.8125 C 3.535156 -0.8125 3.578125 -0.765625 3.578125 -0.671875 L 3.578125 -0.125 C 3.578125 -0.0390625 3.535156 0 3.453125 0 Z M 2.40625 -3.671875 L 3.796875 -3.671875 C 5.003906 -3.671875 5.609375 -4.203125 5.609375 -5.265625 C 5.609375 -5.816406 5.4375 -6.226562 5.09375 -6.5 C 4.75 -6.769531 4.320312 -6.90625 3.8125 -6.90625 L 2.40625 -6.90625 Z M 2.40625 -3.671875 "/></g></g></g><g fill="#737373" fill-opacity="1"><g transform="translate(145.051752, 145.663655)"><g><path d="M 6.53125 0 L 0.65625 0 C 0.5625 0 0.515625 -0.0390625 0.515625 -0.125 L 0.515625 -0.671875 C 0.515625 -0.765625 0.5625 -0.8125 0.65625 -0.8125 L 1.46875 -0.8125 L 1.46875 -6.90625 L 0.65625 -6.90625 C 0.5625 -6.90625 0.515625 -6.945312 0.515625 -7.03125 L 0.515625 -7.578125 C 0.515625 -7.660156 0.5625 -7.703125 0.65625 -7.703125 L 3.21875 -7.703125 C 3.3125 -7.703125 3.359375 -7.65625 3.359375 -7.5625 L 3.359375 -7.046875 C 3.359375 -6.953125 3.3125 -6.90625 3.21875 -6.90625 L 2.40625 -6.90625 L 2.40625 -0.8125 L 5.8125 -0.8125 L 5.8125 -1.859375 C 5.8125 -1.941406 5.859375 -1.984375 5.953125 -1.984375 L 6.53125 -1.984375 C 6.625 -1.984375 6.671875 -1.941406 6.671875 -1.859375 L 6.671875 -0.140625 C 6.671875 -0.046875 6.625 0 6.53125 0 Z M 6.53125 0 "/></g></g></g><g fill="#737373" fill-opacity="1"><g transform="translate(154.175176, 145.663655)"><g><path d="M 8.25 0 L 5.8125 0 C 5.726562 0 5.6875 -0.0390625 5.6875 -0.125 L 5.6875 -0.671875 C 5.6875 -0.765625 5.726562 -0.8125 5.8125 -0.8125 L 6.5625 -0.8125 L 5.875 -2.65625 L 2.875 -2.65625 L 2.171875 -0.8125 L 2.9375 -0.8125 C 3.019531 -0.8125 3.0625 -0.765625 3.0625 -0.671875 L 3.0625 -0.125 C 3.0625 -0.0390625 3.019531 0 2.9375 0 L 0.515625 0 C 0.429688 0 0.390625 -0.0390625 0.390625 -0.125 L 0.390625 -0.671875 C 0.390625 -0.765625 0.429688 -0.8125 0.515625 -0.8125 L 1.234375 -0.8125 L 3.546875 -6.90625 L 2.96875 -6.90625 C 2.875 -6.90625 2.828125 -6.945312 2.828125 -7.03125 L 2.828125 -7.578125 C 2.828125 -7.660156 2.875 -7.703125 2.96875 -7.703125 L 4.421875 -7.703125 C 4.597656 -7.703125 4.726562 -7.664062 4.8125 -7.59375 C 4.90625 -7.53125 4.984375 -7.414062 5.046875 -7.25 L 7.515625 -0.8125 L 8.25 -0.8125 C 8.332031 -0.8125 8.375 -0.765625 8.375 -0.671875 L 8.375 -0.125 C 8.375 -0.0390625 8.332031 0 8.25 0 Z M 5.578125 -3.40625 L 4.390625 -6.59375 L 4.359375 -6.59375 L 3.15625 -3.40625 Z M 5.578125 -3.40625 "/></g></g></g><g fill="#737373" fill-opacity="1"><g transform="translate(165.133568, 145.663655)"><g><path d="M 7.1875 0 L 6.609375 0 C 6.472656 0 6.363281 -0.0234375 6.28125 -0.078125 C 6.207031 -0.128906 6.132812 -0.210938 6.0625 -0.328125 L 2.96875 -5.1875 L 2.421875 -6.09375 L 2.40625 -6.09375 L 2.40625 -0.8125 L 3.234375 -0.8125 C 3.328125 -0.8125 3.375 -0.765625 3.375 -0.671875 L 3.375 -0.125 C 3.375 -0.0390625 3.328125 0 3.234375 0 L 0.65625 0 C 0.5625 0 0.515625 -0.0390625 0.515625 -0.125 L 0.515625 -0.671875 C 0.515625 -0.765625 0.5625 -0.8125 0.65625 -0.8125 L 1.46875 -0.8125 L 1.46875 -6.90625 L 0.65625 -6.90625 C 0.5625 -6.90625 0.515625 -6.945312 0.515625 -7.03125 L 0.515625 -7.578125 C 0.515625 -7.660156 0.5625 -7.703125 0.65625 -7.703125 L 2.15625 -7.703125 C 2.363281 -7.703125 2.546875 -7.582031 2.703125 -7.34375 L 5.765625 -2.5625 L 6.375 -1.515625 L 6.390625 -1.515625 L 6.390625 -6.90625 L 5.578125 -6.90625 C 5.484375 -6.90625 5.4375 -6.945312 5.4375 -7.03125 L 5.4375 -7.578125 C 5.4375 -7.660156 5.484375 -7.703125 5.578125 -7.703125 L 8.15625 -7.703125 C 8.238281 -7.703125 8.28125 -7.660156 8.28125 -7.578125 L 8.28125 -7.03125 C 8.28125 -6.945312 8.238281 -6.90625 8.15625 -6.90625 L 7.328125 -6.90625 L 7.328125 -0.125 C 7.328125 -0.0390625 7.28125 0 7.1875 0 Z M 7.1875 0 "/></g></g></g><g fill="#737373" fill-opacity="1"><g transform="translate(175.866605, 145.663655)"><g><path d="M 5.125 0 L 2.625 0 C 2.53125 0 2.484375 -0.046875 2.484375 -0.140625 L 2.484375 -0.671875 C 2.484375 -0.765625 2.53125 -0.8125 2.625 -0.8125 L 3.453125 -0.8125 L 3.453125 -6.90625 L 1.421875 -6.90625 L 1.421875 -5.765625 C 1.421875 -5.660156 1.367188 -5.609375 1.265625 -5.609375 L 0.671875 -5.609375 C 0.566406 -5.609375 0.515625 -5.660156 0.515625 -5.765625 L 0.515625 -7.5625 C 0.515625 -7.65625 0.566406 -7.703125 0.671875 -7.703125 L 7.140625 -7.703125 C 7.234375 -7.703125 7.28125 -7.65625 7.28125 -7.5625 L 7.28125 -5.765625 C 7.28125 -5.660156 7.234375 -5.609375 7.140625 -5.609375 L 6.53125 -5.609375 C 6.4375 -5.609375 6.390625 -5.660156 6.390625 -5.765625 L 6.390625 -6.90625 L 4.375 -6.90625 L 4.375 -0.8125 L 5.125 -0.8125 C 5.226562 -0.8125 5.28125 -0.765625 5.28125 -0.671875 L 5.28125 -0.140625 C 5.28125 -0.046875 5.226562 0 5.125 0 Z M 5.125 0 "/></g></g></g><g fill="#737373" fill-opacity="1"><g transform="translate(185.601678, 145.663655)"><g><path d="M 1.25 0 L 0.65625 0 C 0.5625 0 0.515625 -0.0390625 0.515625 -0.125 L 0.515625 -2.640625 C 0.515625 -2.734375 0.5625 -2.78125 0.65625 -2.78125 L 1.328125 -2.78125 C 1.410156 -2.78125 1.453125 -2.734375 1.453125 -2.640625 L 1.453125 -2.421875 C 1.453125 -2.285156 1.535156 -2.101562 1.703125 -1.875 C 1.867188 -1.644531 2.035156 -1.457031 2.203125 -1.3125 C 2.367188 -1.175781 2.585938 -1.054688 2.859375 -0.953125 C 3.140625 -0.847656 3.4375 -0.796875 3.75 -0.796875 C 4.300781 -0.796875 4.734375 -0.910156 5.046875 -1.140625 C 5.359375 -1.367188 5.515625 -1.6875 5.515625 -2.09375 C 5.515625 -2.332031 5.425781 -2.535156 5.25 -2.703125 C 5.070312 -2.867188 4.84375 -3 4.5625 -3.09375 C 4.289062 -3.195312 3.984375 -3.289062 3.640625 -3.375 C 3.304688 -3.46875 2.96875 -3.566406 2.625 -3.671875 C 2.28125 -3.785156 1.96875 -3.914062 1.6875 -4.0625 C 1.414062 -4.21875 1.191406 -4.429688 1.015625 -4.703125 C 0.835938 -4.984375 0.75 -5.3125 0.75 -5.6875 C 0.75 -6.289062 0.972656 -6.785156 1.421875 -7.171875 C 1.878906 -7.566406 2.492188 -7.765625 3.265625 -7.765625 C 4.234375 -7.765625 4.941406 -7.484375 5.390625 -6.921875 L 5.359375 -7.59375 C 5.359375 -7.675781 5.40625 -7.71875 5.5 -7.71875 L 6.109375 -7.71875 C 6.191406 -7.71875 6.234375 -7.675781 6.234375 -7.59375 L 6.234375 -5.25 C 6.234375 -5.164062 6.191406 -5.125 6.109375 -5.125 L 5.4375 -5.125 C 5.34375 -5.125 5.296875 -5.164062 5.296875 -5.25 L 5.296875 -5.546875 C 5.296875 -5.835938 5.128906 -6.132812 4.796875 -6.4375 C 4.472656 -6.738281 3.992188 -6.890625 3.359375 -6.890625 C 2.890625 -6.890625 2.507812 -6.773438 2.21875 -6.546875 C 1.925781 -6.328125 1.78125 -6.039062 1.78125 -5.6875 C 1.78125 -5.4375 1.867188 -5.222656 2.046875 -5.046875 C 2.222656 -4.867188 2.453125 -4.722656 2.734375 -4.609375 C 3.023438 -4.503906 3.34375 -4.40625 3.6875 -4.3125 C 4.03125 -4.226562 4.375 -4.128906 4.71875 -4.015625 C 5.0625 -3.910156 5.375 -3.78125 5.65625 -3.625 C 5.945312 -3.476562 6.179688 -3.273438 6.359375 -3.015625 C 6.546875 -2.753906 6.640625 -2.445312 6.640625 -2.09375 C 6.640625 -1.46875 6.410156 -0.945312 5.953125 -0.53125 C 5.503906 -0.125 4.832031 0.078125 3.9375 0.078125 C 3.28125 0.078125 2.734375 -0.0507812 2.296875 -0.3125 C 1.867188 -0.582031 1.5625 -0.875 1.375 -1.1875 L 1.390625 -0.125 C 1.390625 -0.0390625 1.34375 0 1.25 0 Z M 1.25 0 "/></g></g></g><g fill="#737373" fill-opacity="1"><g transform="translate(194.68218, 145.663655)"><g><path d="M 0.484375 0.96875 L 0.484375 0.78125 C 0.484375 0.738281 0.523438 0.71875 0.609375 0.71875 C 0.691406 0.71875 0.773438 0.664062 0.859375 0.5625 C 0.953125 0.46875 1 0.332031 1 0.15625 L 0.984375 0.015625 C 0.929688 0.0546875 0.847656 0.078125 0.734375 0.078125 C 0.628906 0.078125 0.53125 0.0351562 0.4375 -0.046875 C 0.34375 -0.140625 0.296875 -0.257812 0.296875 -0.40625 C 0.296875 -0.5625 0.34375 -0.6875 0.4375 -0.78125 C 0.539062 -0.875 0.675781 -0.921875 0.84375 -0.921875 C 1.007812 -0.921875 1.144531 -0.851562 1.25 -0.71875 C 1.351562 -0.582031 1.40625 -0.347656 1.40625 -0.015625 C 1.40625 0.304688 1.328125 0.554688 1.171875 0.734375 C 1.015625 0.921875 0.8125 1.015625 0.5625 1.015625 C 0.507812 1.015625 0.484375 1 0.484375 0.96875 Z M 0.484375 0.96875 "/></g></g></g><g fill="#737373" fill-opacity="1"><g transform="translate(198.322175, 145.663655)"><g/></g></g><g fill="#737373" fill-opacity="1"><g transform="translate(203.614705, 145.663655)"><g><path d="M 5.125 0 L 2.625 0 C 2.53125 0 2.484375 -0.046875 2.484375 -0.140625 L 2.484375 -0.671875 C 2.484375 -0.765625 2.53125 -0.8125 2.625 -0.8125 L 3.453125 -0.8125 L 3.453125 -6.90625 L 1.421875 -6.90625 L 1.421875 -5.765625 C 1.421875 -5.660156 1.367188 -5.609375 1.265625 -5.609375 L 0.671875 -5.609375 C 0.566406 -5.609375 0.515625 -5.660156 0.515625 -5.765625 L 0.515625 -7.5625 C 0.515625 -7.65625 0.566406 -7.703125 0.671875 -7.703125 L 7.140625 -7.703125 C 7.234375 -7.703125 7.28125 -7.65625 7.28125 -7.5625 L 7.28125 -5.765625 C 7.28125 -5.660156 7.234375 -5.609375 7.140625 -5.609375 L 6.53125 -5.609375 C 6.4375 -5.609375 6.390625 -5.660156 6.390625 -5.765625 L 6.390625 -6.90625 L 4.375 -6.90625 L 4.375 -0.8125 L 5.125 -0.8125 C 5.226562 -0.8125 5.28125 -0.765625 5.28125 -0.671875 L 5.28125 -0.140625 C 5.28125 -0.046875 5.226562 0 5.125 0 Z M 5.125 0 "/></g></g></g><g fill="#737373" fill-opacity="1"><g transform="translate(213.349778, 145.663655)"><g><path d="M 7.984375 -3.890625 C 7.984375 -2.710938 7.628906 -1.753906 6.921875 -1.015625 C 6.222656 -0.285156 5.335938 0.078125 4.265625 0.078125 C 3.191406 0.078125 2.296875 -0.289062 1.578125 -1.03125 C 0.867188 -1.769531 0.515625 -2.722656 0.515625 -3.890625 C 0.515625 -5.066406 0.878906 -6.003906 1.609375 -6.703125 C 2.347656 -7.410156 3.226562 -7.765625 4.25 -7.765625 C 5.28125 -7.765625 6.160156 -7.410156 6.890625 -6.703125 C 7.617188 -6.003906 7.984375 -5.066406 7.984375 -3.890625 Z M 2.34375 -1.609375 C 2.894531 -1.066406 3.535156 -0.796875 4.265625 -0.796875 C 4.992188 -0.796875 5.628906 -1.066406 6.171875 -1.609375 C 6.710938 -2.160156 6.984375 -2.910156 6.984375 -3.859375 C 6.984375 -4.816406 6.707031 -5.566406 6.15625 -6.109375 C 5.601562 -6.648438 4.972656 -6.921875 4.265625 -6.921875 C 3.554688 -6.921875 2.921875 -6.648438 2.359375 -6.109375 C 1.804688 -5.566406 1.53125 -4.816406 1.53125 -3.859375 C 1.53125 -2.910156 1.800781 -2.160156 2.34375 -1.609375 Z M 2.34375 -1.609375 "/></g></g></g><g fill="#737373" fill-opacity="1"><g transform="translate(223.793083, 145.663655)"><g><path d="M 7.40625 0 L 6.84375 0 C 6.75 0 6.703125 -0.0390625 6.703125 -0.125 L 6.703125 -0.875 C 6.078125 -0.238281 5.238281 0.078125 4.1875 0.078125 C 3.144531 0.078125 2.269531 -0.285156 1.5625 -1.015625 C 0.863281 -1.742188 0.515625 -2.703125 0.515625 -3.890625 C 0.515625 -4.691406 0.691406 -5.390625 1.046875 -5.984375 C 1.398438 -6.585938 1.847656 -7.035156 2.390625 -7.328125 C 2.941406 -7.617188 3.535156 -7.765625 4.171875 -7.765625 C 5.265625 -7.765625 6.050781 -7.425781 6.53125 -6.75 L 6.53125 -7.578125 C 6.507812 -7.660156 6.550781 -7.703125 6.65625 -7.703125 L 7.25 -7.703125 C 7.34375 -7.703125 7.390625 -7.660156 7.390625 -7.578125 L 7.390625 -5.359375 C 7.390625 -5.273438 7.34375 -5.234375 7.25 -5.234375 L 6.578125 -5.234375 C 6.492188 -5.234375 6.453125 -5.273438 6.453125 -5.359375 L 6.453125 -5.5 C 6.453125 -5.8125 6.234375 -6.117188 5.796875 -6.421875 C 5.367188 -6.734375 4.816406 -6.890625 4.140625 -6.890625 C 3.472656 -6.890625 2.867188 -6.613281 2.328125 -6.0625 C 1.785156 -5.507812 1.515625 -4.769531 1.515625 -3.84375 C 1.515625 -2.914062 1.785156 -2.179688 2.328125 -1.640625 C 2.867188 -1.097656 3.472656 -0.828125 4.140625 -0.828125 C 4.816406 -0.828125 5.347656 -0.929688 5.734375 -1.140625 C 6.128906 -1.359375 6.425781 -1.613281 6.625 -1.90625 L 6.625 -2.75 L 4.625 -2.75 C 4.539062 -2.75 4.5 -2.796875 4.5 -2.890625 L 4.5 -3.375 C 4.5 -3.46875 4.539062 -3.515625 4.625 -3.515625 L 7.40625 -3.515625 C 7.488281 -3.515625 7.53125 -3.46875 7.53125 -3.375 L 7.53125 -0.125 C 7.53125 -0.0390625 7.488281 0 7.40625 0 Z M 7.40625 0 "/></g></g></g><g fill="#737373" fill-opacity="1"><g transform="translate(233.77497, 145.663655)"><g><path d="M 6.359375 0 L 0.65625 0 C 0.5625 0 0.515625 -0.0390625 0.515625 -0.125 L 0.515625 -0.671875 C 0.515625 -0.765625 0.5625 -0.8125 0.65625 -0.8125 L 1.46875 -0.8125 L 1.46875 -6.90625 L 0.65625 -6.90625 C 0.5625 -6.90625 0.515625 -6.945312 0.515625 -7.03125 L 0.515625 -7.578125 C 0.515625 -7.660156 0.5625 -7.703125 0.65625 -7.703125 L 6.359375 -7.703125 C 6.453125 -7.703125 6.5 -7.660156 6.5 -7.578125 L 6.5 -5.84375 C 6.5 -5.75 6.453125 -5.703125 6.359375 -5.703125 L 5.78125 -5.703125 C 5.6875 -5.703125 5.640625 -5.75 5.640625 -5.84375 L 5.640625 -6.90625 L 2.40625 -6.90625 L 2.40625 -4.234375 L 5.125 -4.234375 C 5.21875 -4.234375 5.265625 -4.191406 5.265625 -4.109375 L 5.265625 -3.5625 C 5.265625 -3.476562 5.21875 -3.4375 5.125 -3.4375 L 2.40625 -3.4375 L 2.40625 -0.8125 L 5.640625 -0.8125 L 5.640625 -1.859375 C 5.640625 -1.941406 5.6875 -1.984375 5.78125 -1.984375 L 6.359375 -1.984375 C 6.453125 -1.984375 6.5 -1.941406 6.5 -1.859375 L 6.5 -0.125 C 6.5 -0.0390625 6.453125 0 6.359375 0 Z M 6.359375 0 "/></g></g></g><g fill="#737373" fill-opacity="1"><g transform="translate(242.715965, 145.663655)"><g><path d="M 5.125 0 L 2.625 0 C 2.53125 0 2.484375 -0.046875 2.484375 -0.140625 L 2.484375 -0.671875 C 2.484375 -0.765625 2.53125 -0.8125 2.625 -0.8125 L 3.453125 -0.8125 L 3.453125 -6.90625 L 1.421875 -6.90625 L 1.421875 -5.765625 C 1.421875 -5.660156 1.367188 -5.609375 1.265625 -5.609375 L 0.671875 -5.609375 C 0.566406 -5.609375 0.515625 -5.660156 0.515625 -5.765625 L 0.515625 -7.5625 C 0.515625 -7.65625 0.566406 -7.703125 0.671875 -7.703125 L 7.140625 -7.703125 C 7.234375 -7.703125 7.28125 -7.65625 7.28125 -7.5625 L 7.28125 -5.765625 C 7.28125 -5.660156 7.234375 -5.609375 7.140625 -5.609375 L 6.53125 -5.609375 C 6.4375 -5.609375 6.390625 -5.660156 6.390625 -5.765625 L 6.390625 -6.90625 L 4.375 -6.90625 L 4.375 -0.8125 L 5.125 -0.8125 C 5.226562 -0.8125 5.28125 -0.765625 5.28125 -0.671875 L 5.28125 -0.140625 C 5.28125 -0.046875 5.226562 0 5.125 0 Z M 5.125 0 "/></g></g></g><g fill="#737373" fill-opacity="1"><g transform="translate(252.451037, 145.663655)"><g><path d="M 8.15625 0 L 5.578125 0 C 5.484375 0 5.4375 -0.0390625 5.4375 -0.125 L 5.4375 -0.671875 C 5.4375 -0.765625 5.484375 -0.8125 5.578125 -0.8125 L 6.390625 -0.8125 L 6.390625 -3.4375 L 2.40625 -3.4375 L 2.40625 -0.8125 L 3.234375 -0.8125 C 3.328125 -0.8125 3.375 -0.765625 3.375 -0.671875 L 3.375 -0.125 C 3.375 -0.0390625 3.328125 0 3.234375 0 L 0.65625 0 C 0.5625 0 0.515625 -0.0390625 0.515625 -0.125 L 0.515625 -0.671875 C 0.515625 -0.765625 0.5625 -0.8125 0.65625 -0.8125 L 1.46875 -0.8125 L 1.46875 -6.90625 L 0.65625 -6.90625 C 0.5625 -6.90625 0.515625 -6.945312 0.515625 -7.03125 L 0.515625 -7.578125 C 0.515625 -7.660156 0.5625 -7.703125 0.65625 -7.703125 L 3.234375 -7.703125 C 3.328125 -7.703125 3.375 -7.660156 3.375 -7.578125 L 3.375 -7.03125 C 3.375 -6.945312 3.328125 -6.90625 3.234375 -6.90625 L 2.40625 -6.90625 L 2.40625 -4.21875 L 6.390625 -4.21875 L 6.390625 -6.90625 L 5.578125 -6.90625 C 5.484375 -6.90625 5.4375 -6.945312 5.4375 -7.03125 L 5.4375 -7.578125 C 5.4375 -7.660156 5.484375 -7.703125 5.578125 -7.703125 L 8.15625 -7.703125 C 8.238281 -7.703125 8.28125 -7.660156 8.28125 -7.578125 L 8.28125 -7.03125 C 8.28125 -6.945312 8.238281 -6.90625 8.15625 -6.90625 L 7.328125 -6.90625 L 7.328125 -0.8125 L 8.15625 -0.8125 C 8.238281 -0.8125 8.28125 -0.765625 8.28125 -0.671875 L 8.28125 -0.125 C 8.28125 -0.0390625 8.238281 0 8.15625 0 Z M 8.15625 0 "/></g></g></g><g fill="#737373" fill-opacity="1"><g transform="translate(263.184083, 145.663655)"><g><path d="M 6.359375 0 L 0.65625 0 C 0.5625 0 0.515625 -0.0390625 0.515625 -0.125 L 0.515625 -0.671875 C 0.515625 -0.765625 0.5625 -0.8125 0.65625 -0.8125 L 1.46875 -0.8125 L 1.46875 -6.90625 L 0.65625 -6.90625 C 0.5625 -6.90625 0.515625 -6.945312 0.515625 -7.03125 L 0.515625 -7.578125 C 0.515625 -7.660156 0.5625 -7.703125 0.65625 -7.703125 L 6.359375 -7.703125 C 6.453125 -7.703125 6.5 -7.660156 6.5 -7.578125 L 6.5 -5.84375 C 6.5 -5.75 6.453125 -5.703125 6.359375 -5.703125 L 5.78125 -5.703125 C 5.6875 -5.703125 5.640625 -5.75 5.640625 -5.84375 L 5.640625 -6.90625 L 2.40625 -6.90625 L 2.40625 -4.234375 L 5.125 -4.234375 C 5.21875 -4.234375 5.265625 -4.191406 5.265625 -4.109375 L 5.265625 -3.5625 C 5.265625 -3.476562 5.21875 -3.4375 5.125 -3.4375 L 2.40625 -3.4375 L 2.40625 -0.8125 L 5.640625 -0.8125 L 5.640625 -1.859375 C 5.640625 -1.941406 5.6875 -1.984375 5.78125 -1.984375 L 6.359375 -1.984375 C 6.453125 -1.984375 6.5 -1.941406 6.5 -1.859375 L 6.5 -0.125 C 6.5 -0.0390625 6.453125 0 6.359375 0 Z M 6.359375 0 "/></g></g></g><g fill="#737373" fill-opacity="1"><g transform="translate(272.125088, 145.663655)"><g><path d="M 7.03125 0 L 6.09375 0 C 5.832031 0 5.617188 -0.171875 5.453125 -0.515625 L 4.4375 -2.5625 C 4.351562 -2.738281 4.265625 -2.867188 4.171875 -2.953125 C 4.078125 -3.046875 3.941406 -3.097656 3.765625 -3.109375 L 2.40625 -3.109375 L 2.40625 -0.8125 L 3.375 -0.8125 C 3.457031 -0.8125 3.5 -0.765625 3.5 -0.671875 L 3.5 -0.125 C 3.5 -0.0390625 3.457031 0 3.375 0 L 0.65625 0 C 0.5625 0 0.515625 -0.0390625 0.515625 -0.125 L 0.515625 -0.671875 C 0.515625 -0.765625 0.5625 -0.8125 0.65625 -0.8125 L 1.46875 -0.8125 L 1.46875 -6.90625 L 0.65625 -6.90625 C 0.5625 -6.90625 0.515625 -6.945312 0.515625 -7.03125 L 0.515625 -7.578125 C 0.515625 -7.660156 0.5625 -7.703125 0.65625 -7.703125 L 3.96875 -7.703125 C 4.726562 -7.703125 5.347656 -7.5 5.828125 -7.09375 C 6.304688 -6.695312 6.546875 -6.128906 6.546875 -5.390625 C 6.546875 -4.265625 6.019531 -3.5625 4.96875 -3.28125 C 5.101562 -3.175781 5.269531 -2.9375 5.46875 -2.5625 L 6.375 -0.8125 L 7.03125 -0.8125 C 7.113281 -0.8125 7.15625 -0.765625 7.15625 -0.671875 L 7.15625 -0.125 C 7.15625 -0.0390625 7.113281 0 7.03125 0 Z M 2.40625 -3.859375 L 3.78125 -3.859375 C 5 -3.859375 5.609375 -4.359375 5.609375 -5.359375 C 5.609375 -6.390625 5 -6.90625 3.78125 -6.90625 L 2.40625 -6.90625 Z M 2.40625 -3.859375 "/></g></g></g></svg>